<?xml version="1.0" ?>
<svg enable-background="new 0 0 64 64" id="Filled_Outline_1_" version="1.1" viewBox="0 0 64 64" xml:space="preserve" xmlns="http://www.w3.org/2000/svg"><title/><desc/><g><g><g><g><path d="M30,4c4.688,4.688,4.688,12.312,0,17s-12.312,4.688-17,0c1.853-1.853,3.603-3.611,6-4l0,0      c-1.921-1.921-3-4.526-3-7.243V7h2.757c2.717,0,5.322,1.079,7.243,3l0,0C26.389,7.603,28.147,5.853,30,4z" fill="#009245"/></g></g><path d="M25,10c0,3.31-2.69,6-6,6c-0.32,0-0.63-0.02-0.93-0.08c-0.53-0.69-0.96-1.44-1.29-2.24    C16.27,12.44,16,11.12,16,9.76V7h2.76c2.23,0,4.4,0.73,6.16,2.07C24.98,9.37,25,9.68,25,10z M30,4c-0.92,0.92-1.83,1.82-2.55,2.79    C27.37,6.89,27.3,7,27.23,7.11v0.01C27.08,7.7,27,8.34,27,9c0,2.76,1.34,5,3,5s3-2.23,3-4.99V9C32.45,7.17,31.44,5.44,30,4z     M18,18c-0.66,0-1.29,0.08-1.87,0.22c0,0-0.01,0-0.02,0.01C15.02,18.98,14.02,19.98,13,21c1.44,1.44,3.17,2.45,5,3h0.01    c2.76,0,4.99-1.34,4.99-3C23,19.34,20.76,18,18,18z" fill="#39B54A"/><path d="M48,30c0-2.666-1.74-4.922-4.144-5.704C43.948,23.878,44,23.445,44,23c0-3.314-2.686-6-6-6s-6,2.686-6,6    c0-3.314-2.686-6-6-6s-6,2.686-6,6c0,0.445,0.052,0.878,0.144,1.296C17.74,25.078,16,27.334,16,30    c0,2.325,1.325,4.337,3.258,5.333C18.472,36.347,18,37.617,18,39c0,3.164,2.451,5.75,5.557,5.978C22.593,46.042,22,47.45,22,49    c0,3.014,2.225,5.502,5.121,5.929C27.046,55.274,27,55.631,27,56c0,2.761,2.239,5,5,5s5-2.239,5-5    c0-0.369-0.046-0.726-0.121-1.071C39.775,54.502,42,52.014,42,49c0-1.55-0.593-2.958-1.557-4.022C43.549,44.75,46,42.164,46,39    c0-1.383-0.472-2.653-1.258-3.667C46.675,34.337,48,32.325,48,30z" fill="#603F96"/><path d="M34,49c0,2.9-2.06,5.32-4.8,5.88C27.83,53.31,27,51.25,27,49s0.83-4.31,2.2-5.88    C31.94,43.68,34,46.1,34,49z" fill="#603F96"/><path d="M16.02,29.59c0.17-2.48,1.84-4.55,4.12-5.29c0.14,0.65,0.39,1.25,0.73,1.8C20.59,26.03,20.3,26,20,26    C17.93,26,16.23,27.57,16.02,29.59z" fill="#3E2F6F"/><path d="M44,26c-0.3,0-0.59,0.03-0.87,0.1c0.34-0.55,0.59-1.15,0.73-1.8c2.28,0.74,3.95,2.81,4.12,5.29    C47.77,27.57,46.07,26,44,26z" fill="#3E2F6F"/><path d="M37,56c0,2.76-2.24,5-5,5s-5-2.24-5-5c0-0.37,0.04-0.73,0.12-1.07C27.41,54.98,27.7,55,28,55    c0.04,0,0.09,0,0.13-0.01c0.44,1.73,2,3.01,3.87,3.01s3.43-1.28,3.87-3.01C35.91,55,35.96,55,36,55c0.3,0,0.59-0.02,0.88-0.07    C36.96,55.27,37,55.63,37,56z M28,34.54c-0.38-0.34-0.8-0.64-1.26-0.87C25.65,35.09,23.93,36,22,36c-0.99,0-1.92-0.24-2.74-0.66    c-0.73,0.93-1.18,2.09-1.24,3.35C18.17,37.18,19.44,36,21,36c1.66,0,3,1.34,3,3c0,1.66-1.34,3-3,3c-1.56,0-2.83-1.18-2.98-2.69    c0.14,3.02,2.54,5.45,5.54,5.67c1-1.12,2.41-1.85,4-1.95C26.59,41.97,26,40.56,26,39C26,37.23,26.77,35.63,28,34.54z M30.52,51.44    C29.76,51.8,28.9,52,28,52c-2.79,0-5.14-1.92-5.8-4.5C22.07,47.98,22,48.48,22,49c0,3.31,2.69,6,6,6c1.54,0,2.94-0.58,4-1.54    C31.37,52.91,30.86,52.22,30.52,51.44z M26,29c-0.81,0-1.58-0.16-2.28-0.45C23.9,29,24,29.49,24,30c0,2.21-1.79,4-4,4    c-2.07,0-3.77-1.57-3.98-3.59C16.23,33.53,18.83,36,22,36c2.32,0,4.33-1.32,5.33-3.24C26.49,31.73,26,30.43,26,29z M43,42    c-1.66,0-3-1.34-3-3c0-1.66,1.34-3,3-3c1.56,0,2.83,1.18,2.98,2.69c-0.06-1.26-0.51-2.42-1.24-3.35C43.92,35.76,42.99,36,42,36    c-1.93,0-3.65-0.91-4.74-2.33C36.8,33.9,36.38,34.2,36,34.54c1.23,1.09,2,2.69,2,4.46c0,1.56-0.59,2.97-1.56,4.03    c1.59,0.1,3,0.83,4,1.95c3-0.22,5.4-2.65,5.54-5.67C45.83,40.82,44.56,42,43,42z M30,49c0-1.77,0.77-3.37,2-4.46    c-0.78-0.71-1.74-1.2-2.8-1.42C27.83,44.69,27,46.75,27,49s0.83,4.31,2.2,5.88c1.06-0.22,2.02-0.71,2.8-1.42    C30.77,52.37,30,50.77,30,49z M41.81,47.5C41.14,50.08,38.79,52,36,52s-5.14-1.92-5.8-4.5C30.07,47.98,30,48.48,30,49    c0,3.31,2.69,6,6,6s6-2.69,6-6C42,48.48,41.93,47.98,41.81,47.5z M44,34c-2.21,0-4-1.79-4-4c0-0.51,0.1-1,0.28-1.45    C39.58,28.84,38.81,29,38,29c0,1.43-0.49,2.73-1.33,3.76c1,1.92,3.01,3.24,5.33,3.24c3.17,0,5.77-2.47,5.98-5.59    C47.77,32.43,46.07,34,44,34z M26,26c-2.79,0-5.14-1.92-5.8-4.5C20.07,21.98,20,22.48,20,23c0,3.31,2.69,6,6,6    c0-1.12,0.31-2.17,0.85-3.06C26.57,25.98,26.29,26,26,26z M43.81,21.5C43.14,24.08,40.79,26,38,26c-0.29,0-0.57-0.02-0.85-0.06    C37.69,26.83,38,27.88,38,29c3.31,0,6-2.69,6-6C44,22.48,43.93,21.98,43.81,21.5z M37.81,27.5C37.14,30.08,34.79,32,32,32    s-5.14-1.92-5.8-4.5C26.07,27.98,26,28.48,26,29c0,3.31,2.69,6,6,6s6-2.69,6-6C38,28.48,37.93,27.98,37.81,27.5z M37.81,37.5    C37.14,40.08,34.79,42,32,42s-5.14-1.92-5.8-4.5C26.07,37.98,26,38.48,26,39c0,3.31,2.69,6,6,6s6-2.69,6-6    C38,38.48,37.93,37.98,37.81,37.5z" fill="#3E2F6F"/><path d="M32,27c-1.473,0-2.667-0.895-2.667-2s1.194-2,2.667-2s2.667,0.895,2.667,2S33.473,27,32,27z M40.667,19    c0-1.105-1.194-2-2.667-2s-2.667,0.895-2.667,2s1.194,2,2.667,2S40.667,20.105,40.667,19z M28.667,19c0-1.105-1.194-2-2.667-2    s-2.667,0.895-2.667,2s1.194,2,2.667,2S28.667,20.105,28.667,19z" fill="#705CB2"/></g><path d="M15.543,24.08c-1.197-0.615-2.291-1.414-3.25-2.373c-0.391-0.391-0.391-1.023,0-1.414   c1.5-1.5,3.025-3.025,4.932-3.817C15.781,14.545,15,12.211,15,9.757V7c0-0.552,0.448-1,1-1h2.757c2.454,0,4.788,0.781,6.718,2.225   c0.791-1.906,2.313-3.428,3.794-4.91c0.391-0.39,1.046-0.413,1.437-0.022c1.511,1.511,2.635,3.386,3.25,5.422l-1.914,0.578   c-0.424-1.402-1.133-2.714-2.073-3.844c-1.496,1.523-2.693,2.928-2.982,4.711c-0.06,0.371-0.323,0.676-0.68,0.792   c-0.356,0.115-0.749,0.021-1.014-0.245C23.547,8.961,21.226,8,18.757,8H17v1.757c0,2.469,0.961,4.79,2.707,6.536   c0.266,0.265,0.36,0.657,0.245,1.014c-0.115,0.357-0.421,0.62-0.792,0.68c-1.79,0.29-3.197,1.495-4.712,2.983   c0.62,0.517,1.292,0.963,2.009,1.331L15.543,24.08z M52,11c0,3.309-2.691,6-6,6s-6-2.691-6-6c0-0.807,0.149-1.618,0.419-2.403   c-2.911,1.713-5.405,4.75-6.623,8.819C34.969,16.531,36.422,16,38,16c3.86,0,7,3.14,7,7c0,0.229-0.013,0.456-0.034,0.68   C47.398,24.823,49,27.272,49,30c0,2.313-1.133,4.362-2.868,5.638C46.694,36.661,47,37.813,47,39c0,3.109-2.039,5.748-4.848,6.658   C42.692,46.656,43,47.793,43,49c0,3.17-2.12,5.851-5.015,6.709C37.99,55.806,38,55.903,38,56c0,3.309-2.691,6-6,6s-6-2.691-6-6   c0-0.097,0.01-0.194,0.015-0.291C23.12,54.851,21,52.17,21,49c0-1.209,0.308-2.347,0.85-3.341C19.04,44.749,17,42.11,17,39   c0-1.187,0.306-2.339,0.868-3.362C16.133,34.362,15,32.314,15,30c0-2.728,1.602-5.177,4.034-6.32C19.013,23.456,19,23.229,19,23   c0-3.86,3.14-7,7-7c2.203,0,4.169,1.026,5.453,2.622c1.322-6.32,5.431-11.326,10.665-13.01C43.857,3.495,46.442,2,49,2v2   c-1.072,0-2.177,0.378-3.184,1.001C49.173,4.937,52,7.63,52,11z M37,39c0-1.476-0.647-2.857-1.755-3.803   C34.274,35.707,33.171,36,32,36s-2.274-0.293-3.245-0.803C27.647,36.143,27,37.524,27,39c0,2.757,2.243,5,5,5S37,41.757,37,39z    M37,29c0-2.757-2.243-5-5-5s-5,2.243-5,5s2.243,5,5,5S37,31.757,37,29z M21,23c0,2.447,1.769,4.48,4.094,4.908   c0.471-2.985,2.829-5.344,5.815-5.815C30.48,19.769,28.447,18,26,18C23.243,18,21,20.243,21,23z M22,35   c1.658,0,3.203-0.839,4.13-2.2c-0.551-0.848-0.92-1.822-1.06-2.869c-2.511-0.336-4.605-2.003-5.541-4.271   C17.99,26.538,17,28.185,17,30C17,32.757,19.243,35,22,35z M23.199,43.919c0.748-0.707,1.649-1.254,2.651-1.578   C25.308,41.347,25,40.209,25,39c0-1.094,0.263-2.147,0.732-3.097C24.629,36.6,23.342,37,22,37c-0.829,0-1.622-0.153-2.361-0.418   C19.231,37.318,19,38.144,19,39C19,41.483,20.824,43.533,23.199,43.919z M28,54c0.888,0,1.747-0.242,2.503-0.681   C29.565,52.128,29,50.63,29,49c0-1.178,0.302-2.321,0.855-3.339c-1.004-0.324-1.906-0.871-2.656-1.58   C24.824,44.467,23,46.517,23,49C23,51.757,25.243,54,28,54z M36,56c-1.487,0-2.864-0.469-3.999-1.263   C30.832,55.553,29.441,56,28,56c0,2.206,1.794,4,4,4S36,58.206,36,56z M41,49c0-2.452-1.752-4.526-4.166-4.931l0.004-0.023   c-1.252,1.201-2.945,1.945-4.812,1.952C31.373,46.863,31,47.907,31,49c0,2.757,2.243,5,5,5S41,51.757,41,49z M44.361,36.582   C43.622,36.848,42.829,37,42,37c-1.342,0-2.629-0.4-3.732-1.097C38.737,36.853,39,37.906,39,39c0,1.209-0.309,2.348-0.851,3.342   c1.017,0.325,1.922,0.869,2.668,1.576C43.185,43.524,45,41.477,45,39C45,38.144,44.769,37.318,44.361,36.582z M44.472,25.66   c-0.936,2.268-3.03,3.935-5.541,4.271c-0.14,1.047-0.509,2.021-1.06,2.869C38.797,34.161,40.342,35,42,35c2.757,0,5-2.243,5-5   C47,28.185,46.01,26.538,44.472,25.66z M33.092,22.094c2.985,0.471,5.344,2.829,5.815,5.815C41.231,27.48,43,25.447,43,23   c0-2.757-2.243-5-5-5C35.553,18,33.52,19.769,33.092,22.094z M50,11c0-2.206-1.794-4-4-4c-0.898,0-1.806,0.126-2.703,0.372   C42.5,8.492,42,9.768,42,11c0,2.206,1.794,4,4,4S50,13.206,50,11z M51,2v2h2V2H51z" fill="#28284B"/></g></svg>